HIERARCHY
ROOT Hips
{
  OFFSET 48.0817 51.7002 -0.648874
  CHANNELS 6 Xposition Yposition Zposition Zrotation Xrotation Yrotation
  JOINT spine
  {
    OFFSET 0 8.30104 0.477351
    CHANNELS 3 Zrotation Xrotation Yrotation
    JOINT spine1
    {
      OFFSET 0 10.4565 0
      CHANNELS 3 Zrotation Xrotation Yrotation
      JOINT spine2
      {
        OFFSET 0 10.0192 0
        CHANNELS 3 Zrotation Xrotation Yrotation
        JOINT Neck
        {
          OFFSET 0 25.7235 1.22641
          CHANNELS 3 Zrotation Xrotation Yrotation
          JOINT Head
          {
            OFFSET 0 7.77175 0
            CHANNELS 3 Zrotation Xrotation Yrotation
            End Site
            {
              OFFSET 0 18.812 -6.20394
            }
          }
        }
        JOINT RightShoulder
        {
          OFFSET -4.2188 10.82 -0.587439
          CHANNELS 3 Zrotation Xrotation Yrotation
          JOINT RightArm
          {
            OFFSET 0 14.1914 0
            CHANNELS 3 Zrotation Xrotation Yrotation
            JOINT RightArmRoll
            {
              OFFSET 0 7.16408 0
              CHANNELS 3 Zrotation Xrotation Yrotation
              JOINT RightForeArm
              {
                OFFSET 0 20.8665 0
                CHANNELS 3 Zrotation Xrotation Yrotation
                JOINT RightForeArmRoll
                {
                  OFFSET 0 8.03921 0
                  CHANNELS 3 Zrotation Xrotation Yrotation
                  JOINT RightHand
                  {
                    OFFSET 0 16.133 0
                    CHANNELS 3 Zrotation Xrotation Yrotation
                    End Site
                    {
                      OFFSET 0 0 0
                    }
                  }
                }
              }
            }
          }
        }
        JOINT LeftShoulder
        {
          OFFSET 4.2188 10.82 -0.587439
          CHANNELS 3 Zrotation Xrotation Yrotation
          JOINT LeftArm
          {
            OFFSET 0 14.1914 0
            CHANNELS 3 Zrotation Xrotation Yrotation
            JOINT LeftArmRoll
            {
              OFFSET 0 7.16408 0
              CHANNELS 3 Zrotation Xrotation Yrotation
              JOINT LeftForeArm
              {
                OFFSET 0 20.8665 0
                CHANNELS 3 Zrotation Xrotation Yrotation
                JOINT LeftForeArmRoll
                {
                  OFFSET 0 8.03921 0
                  CHANNELS 3 Zrotation Xrotation Yrotation
                  JOINT LeftHand
                  {
                    OFFSET 0 16.133 0
                    CHANNELS 3 Zrotation Xrotation Yrotation
                    End Site
                    {
                      OFFSET 0 0 0
                    }
                  }
                }
              }
            }
          }
        }
      }
    }
  }
  JOINT RightUpLeg
  {
    OFFSET -7.35773 -1.34921 -1.13181
    CHANNELS 3 Zrotation Xrotation Yrotation
    JOINT RightUpLegRoll
    {
      OFFSET 0 18.9168 0
      CHANNELS 3 Zrotation Xrotation Yrotation
      JOINT RightLeg
      {
        OFFSET 0 -23.4256 0
        CHANNELS 3 Zrotation Xrotation Yrotation
        JOINT RightLegRoll
        {
          OFFSET 0 23.5023 0
          CHANNELS 3 Zrotation Xrotation Yrotation
          JOINT RightFoot
          {
            OFFSET 0 19.5617 0
            CHANNELS 3 Zrotation Xrotation Yrotation
            JOINT RightToeBase
            {
              OFFSET 0 16.3526 0
              CHANNELS 3 Zrotation Xrotation Yrotation
              End Site
              {
                OFFSET 0.00693125 7.91944 -0.912836
              }
            }
          }
        }
      }
    }
  }
  JOINT LeftUpLeg
  {
    OFFSET 7.35773 -1.34921 -1.13181
    CHANNELS 3 Zrotation Xrotation Yrotation
    JOINT LeftUpLegRoll
    {
      OFFSET 0 18.9169 0
      CHANNELS 3 Zrotation Xrotation Yrotation
      JOINT LeftLeg
      {
        OFFSET 0 23.4255 0
        CHANNELS 3 Zrotation Xrotation Yrotation
        JOINT LeftLegRoll
        {
          OFFSET 0 23.7195 0
          CHANNELS 3 Zrotation Xrotation Yrotation
          JOINT LeftFoot
          {
            OFFSET 0 19.3444 0
            CHANNELS 3 Zrotation Xrotation Yrotation
            JOINT LeftToeBase
            {
              OFFSET 0 16.3526 0
              CHANNELS 3 Zrotation Xrotation Yrotation
              End Site
              {
                OFFSET -0.0310629 7.91944 -0.912836
              }
            }
          }
        }
      }
    }
  }
}
MOTION
Frames: 6
Frame Time: 0.00208333
47.3285 98.8847 31.0624 -0.185503 -2.46169 1.69918 0.10913 -1.04109 0.16981 0.222713 1.93704 0.323483 0.218989 3.58209 0.319932 -0.302037 18.5608 -1.66286 1.01937 -6.96007 -1.59004 72.4089 -1.62231 -2.35009 98.1834 26.816 19.3705 -7.95139e-016 -6.36111e-015 6.36111e-015 10.1749 3.98614 -0.26999 -4.11245e-006 8.57157e-006 -3.0097 8.02896 -4.95146 0.697682 -64.0241 2.34247 -0.645134 -102.552 19.0016 -13.5321 2.30318e-005 3.68006e-006 -8.48728e-007 -9.08594 5.55103 1.07524 4.4288e-006 2.32066e-006 3 -8.02901 -4.95148 -0.697681 176.066 1.44296 0.788249 180 7.01546e-015 178.917 176.446 6.88988 179.71 -2.95271e-007 -4.48079e-006 0.0864988 -18.4947 67.7162 19.2894 8.12664 25.2332 -3.48354 -173.821 2.40957 0.131175 4.54188e-006 -4.6773e-006 -1.16469 -2.85257 -12.2017 0.509386 1.03178e-006 3.14144e-006 -0.195512 19.2702 68.5846 -20.0269 -8.12154 25.2335 3.48136 
47.3305 98.8689 31.0251 -0.190035 -2.45141 1.69728 0.109339 -1.03706 0.169144 0.22288 1.94394 0.322211 0.219174 3.58899 0.318659 -0.317176 18.5468 -1.66228 1.03281 -6.95736 -1.59197 72.39 -1.62334 -2.34885 98.2121 26.8288 19.3616 2.54444e-014 -6.36111e-015 1.90833e-014 10.1634 4.01288 -0.272674 -4.11245e-006 8.57157e-006 -3.0097 8.02896 -4.95146 0.697682 -64.0288 2.34468 -0.645629 -102.543 19.0241 -13.5298 2.30318e-005 3.68006e-006 -8.48728e-007 -9.08132 5.5616 1.07606 4.4288e-006 2.32066e-006 3 -8.02901 -4.95148 -0.697681 176.067 1.47927 0.789869 180 7.01546e-015 178.917 176.44 6.91085 179.71 -2.95271e-007 -4.48079e-006 0.0866924 -18.4913 67.7121 19.2857 8.12664 25.2332 -3.48354 -173.813 2.45092 0.130862 4.54188e-006 -4.6773e-006 -1.16471 -2.84858 -12.2311 0.509458 1.03178e-006 3.14144e-006 -0.195175 19.2806 68.5962 -20.0376 -8.12154 25.2335 3.48136 
47.3254 98.8699 31.0101 -0.194691 -2.44129 1.69542 0.109544 -1.03306 0.168492 0.22303 1.95074 0.320939 0.219343 3.59579 0.317385 -0.331271 18.5321 -1.66207 1.04541 -6.95367 -1.59409 72.3718 -1.62433 -2.34766 98.2401 26.8417 19.3528 -3.18055e-015 3.18055e-015 3.18055e-015 10.1521 4.03986 -0.275424 -4.11245e-006 8.57157e-006 -3.0097 8.02896 -4.95146 0.697682 -64.0333 2.34695 -0.646196 -102.534 19.0467 -13.5273 2.30318e-005 3.68006e-006 -8.48728e-007 -9.07668 5.5724 1.07687 4.4288e-006 2.32066e-006 3 -8.02901 -4.95148 -0.697681 176.069 1.51506 0.79139 180 7.01546e-015 178.918 176.434 6.93146 179.71 -2.95271e-007 -4.48079e-006 0.0868782 -18.488 67.708 19.282 8.12664 25.2332 -3.48354 -173.805 2.49186 0.130855 4.54188e-006 -4.6773e-006 -1.16475 -2.84414 -12.26 0.509586 1.03178e-006 3.14144e-006 -0.194789 19.2911 68.6081 -20.0485 -8.12154 25.2335 3.48136 
47.3209 98.8793 30.9995 -0.199435 -2.43127 1.69357 0.109748 -1.02908 0.16785 0.223169 1.95748 0.319667 0.2195 3.60253 0.316111 -0.344634 18.5169 -1.66213 1.05743 -6.94929 -1.59635 72.3541 -1.62528 -2.34649 98.2675 26.8546 19.3439 -7.95139e-015 -3.18055e-015 3.18055e-015 10.141 4.067 -0.278221 -4.11245e-006 8.57157e-006 -3.0097 8.02896 -4.95146 0.697682 -64.0376 2.34928 -0.646814 -102.525 19.0694 -13.5247 2.30318e-005 3.68006e-006 -8.48728e-007 -9.07204 5.58336 1.07767 4.4288e-006 2.32066e-006 3 -8.02901 -4.95148 -0.697681 176.071 1.55049 0.792844 180 7.01546e-015 178.918 176.429 6.95183 179.71 -2.95271e-007 -4.48079e-006 0.0870587 -18.4846 67.7039 19.2784 8.12664 25.2332 -3.48354 -173.796 2.53249 0.131062 4.54188e-006 -4.6773e-006 -1.16481 -2.83938 -12.2887 0.509753 1.03178e-006 3.14144e-006 -0.194369 19.3018 68.62 -20.0595 -8.12154 25.2335 3.48136 
47.3179 98.8764 30.9761 -0.204228 -2.42132 1.69174 0.10995 -1.0251 0.167214 0.223302 1.96418 0.318395 0.219651 3.60923 0.314837 -0.357579 18.5015 -1.66233 1.06911 -6.94452 -1.59869 72.3367 -1.62622 -2.34535 98.2945 26.8675 19.3351 1.59028e-015 0 9.54166e-015 10.1301 4.09424 -0.281045 -4.11245e-006 8.57157e-006 -3.0097 8.02896 -4.95146 0.697682 -64.0419 2.35163 -0.647461 -102.516 19.092 -13.5221 2.30318e-005 3.68006e-006 -8.48728e-007 -9.0674 5.59441 1.07847 4.4288e-006 2.32066e-006 3 -8.02901 -4.95148 -0.697681 176.073 1.58571 0.794258 180 7.01546e-015 178.918 176.423 6.97205 179.711 -2.95271e-007 -4.48079e-006 0.0872361 -18.4814 67.6999 19.2747 8.12664 25.2332 -3.48354 -173.788 2.57296 0.131391 4.54188e-006 -4.6773e-006 -1.16489 -2.83445 -12.3172 0.509943 1.03178e-006 3.14144e-006 -0.193928 19.3126 68.6321 -20.0706 -8.12154 25.2335 3.48136 
47.3141 98.8636 30.9523 -0.209034 -2.41138 1.68992 0.110152 -1.02113 0.166578 0.223433 1.97087 0.317123 0.2198 3.61591 0.313563 -0.37042 18.4861 -1.66258 1.0807 -6.93965 -1.60105 72.3194 -1.62714 -2.3442 98.3215 26.8804 19.3263 6.36111e-015 -6.36111e-015 9.54166e-015 10.1191 4.1215 -0.283876 -4.11245e-006 8.57157e-006 -3.0097 8.02896 -4.95146 0.697682 -64.0461 2.35399 -0.648115 -102.507 19.1146 -13.5194 2.30318e-005 3.68006e-006 -8.48728e-007 -9.06275 5.60548 1.07927 4.4288e-006 2.32066e-006 3 -8.02901 -4.95148 -0.697681 176.074 1.62088 0.795663 180 7.01546e-015 178.918 176.418 6.99224 179.711 -2.95271e-007 -4.48079e-006 0.0874127 -18.4781 67.6959 19.2711 8.12664 25.2332 -3.48354 -173.779 2.61338 0.13175 4.54188e-006 -4.6773e-006 -1.16496 -2.82947 -12.3456 0.510139 1.03178e-006 3.14144e-006 -0.193483 19.3234 68.6441 -20.0818 -8.12154 25.2335 3.48136 
